<?xml version="1.0" encoding="utf-8"?>
<!-- Generator: Adobe Illustrator 18.1.1, SVG Export Plug-In . SVG Version: 6.00 Build 0)  -->
<!DOCTYPE svg PUBLIC "-//W3C//DTD SVG 1.1//EN" "http://www.w3.org/Graphics/SVG/1.1/DTD/svg11.dtd">
<svg version="1.1" id="Layer_1" xmlns="http://www.w3.org/2000/svg" xmlns:xlink="http://www.w3.org/1999/xlink" x="0px" y="0px"
	 viewBox="0 0 172.2 57.8" enable-background="new 0 0 172.2 57.8" xml:space="preserve">
<g>
	<g>
		<path fill="#17A68E" d="M65.7,57.5c0-4.2,0-8.3,0-12.5c0-5.3,0-10.7,0-16c0-7.3-5-13-12.1-14.1c-7.9-1.1-14.5,2.9-16.5,10.3
			c-2.5,9.4,5.2,19.6,16.7,17.5c0.3-0.1,0.7-0.3,1-0.3c1-0.1,2.1-0.5,2.5,0.8c0.4,1.5-0.8,1.8-1.9,2.1c-13.2,3.6-22.6-8-21.4-18.4
			c0.9-7.9,8.7-15.8,19.1-14.7c8.3,0.9,15.1,8.3,15.1,17.2c0,8.7,0,17.5,0,26.2C68.4,57.3,68,58.3,65.7,57.5z"/>
		<path fill="#17A68E" d="M132.6,23.1c0,2,0.1,4,0,6.1c-0.1,6-6.2,13.7-11.8,15.7c-12,4.2-22.9-6-22.2-16.2c0.3-4.5,0-9.1,0.1-13.6
			c0-0.9-0.4-2.2,1.1-2.3c1.6-0.1,1.6,1.1,1.6,2.2c0,4.8,0,9.6,0,14.4c0.1,7.2,5.9,13.4,13,13.7c7.6,0.4,13.7-5,15.1-12.2
			c1-5.1,0.5-10.1,0.8-15.1c0-0.4,0-0.9,0-1.3c0-0.9,0.2-1.7,1.2-1.8c1.2-0.1,1.1,0.9,1.1,1.7C132.6,17.4,132.6,20.2,132.6,23.1z"/>
		<path fill="#17A68E" d="M155.3,16.4c0-4.8,0-9.6,0-14.4c0-0.8-0.3-2,1.1-2c1.2,0,1.6,0.9,1.6,2c0,2.5,0.1,5,0,7.5
			c-0.2,2.4,0.5,3.6,3.1,3.2c0.7-0.1,1.4,0,2.1,0c0.8,0.1,1.3,0.5,1.3,1.4c0,0.9-0.6,1.2-1.4,1.3c-0.2,0-0.4,0-0.5,0
			c-4.6,0.3-4.6,0.3-4.6,4.9c0,2.8,0,5.5,0,8.3c0.1,8.3,3.7,12.8,11.9,14.5c1.1,0.2,2.6,0,2.2,1.8c-0.4,1.6-1.7,1-2.7,0.9
			c-7.5-0.9-14-8.1-14.1-15.7C155.2,25.5,155.3,21,155.3,16.4C155.3,16.4,155.3,16.4,155.3,16.4z"/>
		<path fill="#17A68E" d="M76.4,35.8c0.1-5.7-0.6-10.6,2-15c2.9-4.8,6.9-7.9,12.5-8.6c1-0.1,2.4-0.4,2.5,1.2
			c0.1,1.6-1.2,1.4-2.3,1.5c-6.7,0.7-12,6.6-12.1,13.4c-0.1,4.6,0,9.3,0,13.9c0,1.1,0.5,2.6-1.3,2.7c-1.9,0.1-1.3-1.5-1.4-2.6
			C76.3,39.8,76.4,37.3,76.4,35.8z"/>
		<path fill="#17A68E" d="M25.4,28.8c0,4.6,0,9.2,0,13.9c0,1.2,0,2.6-1.6,2.5c-1.4-0.1-1.4-1.3-1.4-2.4c0-9.2,0-18.5,0-27.7
			c0-1.2,0.1-2.6,1.6-2.5c1.4,0.1,1.4,1.3,1.4,2.4C25.4,19.6,25.4,24.2,25.4,28.8z"/>
		<path fill="#17A68E" d="M145.4,28.8c0,4.6,0,9.2,0,13.9c0,1.2,0,2.6-1.6,2.5c-1.4-0.1-1.4-1.3-1.4-2.4c0-9.2,0-18.5,0-27.7
			c0-1.2,0.1-2.6,1.6-2.5c1.4,0.1,1.4,1.3,1.4,2.4C145.4,19.6,145.4,24.2,145.4,28.8z"/>
		<path fill="#17A68E" d="M0.1,44.7c0.2-7-0.7-13.8,0.6-20.6C1.9,17.7,8.6,12.5,15,12.2c0.9,0,1.9,0.1,1.9,1.3
			c0,1.2-0.9,1.3-1.9,1.4c-7.7,1-12.5,6.4-12.5,14.2c0,4.5,0,9.1,0,13.6C2.6,44.1,2.4,45.3,0.1,44.7z"/>
	</g>
	<path fill="#189D93" d="M24,7.7h-0.2c-0.7,0-1.3-0.6-1.3-1.3v-5c0-0.7,0.6-1.3,1.3-1.3l0.2,0c0.7,0,1.3,0.6,1.3,1.3v5
		C25.3,7.1,24.7,7.7,24,7.7z"/>
	<path fill="#17A68E" d="M144,7.7h-0.2c-0.7,0-1.3-0.6-1.3-1.3v-5c0-0.7,0.6-1.3,1.3-1.3l0.2,0c0.7,0,1.3,0.6,1.3,1.3v5
		C145.3,7.1,144.7,7.7,144,7.7z"/>
</g>
</svg>
