<?xml version="1.0" encoding="utf-8"?>
<!-- Generator: Adobe Illustrator 18.1.1, SVG Export Plug-In . SVG Version: 6.00 Build 0)  -->
<!DOCTYPE svg PUBLIC "-//W3C//DTD SVG 1.1//EN" "http://www.w3.org/Graphics/SVG/1.1/DTD/svg11.dtd">
<svg version="1.1" id="Layer_1" xmlns="http://www.w3.org/2000/svg" xmlns:xlink="http://www.w3.org/1999/xlink" x="0px" y="0px"
	 viewBox="0 0 73.8 100" enable-background="new 0 0 73.8 100" xml:space="preserve">
<g>
	<path fill="#17A68E" d="M5.4,99.4c-0.5,0.3-0.6,0.3-0.6,0.3C0,100.3,0,100.3,0,95.6c0-19.5,0.1-39,0-58.5
		c-0.1-8.8,2.2-16.9,8.1-23.4C15.3,5.9,23.7,0.1,35,0c7.5-0.1,14.8,0.6,21.2,4.9C67,12.2,73.6,22,73.8,35.4
		c0.3,16.2-7.7,27.3-21.8,34.3c-2.4,1.2-1.9,2.3-0.8,3.8c5.7,7.8,11.4,15.7,17.1,23.5c0.5,0.7,1.3,1.3,1.2,2.3
		c-3.9,1.4-5.9,0.8-8.1-2.3c-5.3-7.5-10.6-14.9-15.9-22.4c-1-1.4-2-2-4-1.8c-5.4,0.7-10.8-0.1-16-1.8c-1.4-0.5-3-0.9-2-3.1
		c0.8-1.8,1.5-2.6,3.8-1.9c17,5.3,32.4-1.8,38.9-17.9c6.8-16.6-1.5-36-18.5-41.5C34.2,2.2,22.6,6,13.1,17.2
		c-5.6,6.6-7.6,14.2-7.5,22.7c0.1,18.8,0,37.6,0,56.4C5.4,97.4,5.4,98.4,5.4,99.4z"/>
</g>
</svg>
